# xmcd
#
# Track frame offsets: 
#        150
#        13265
#        25901
#        43440
#        60324
#        72683
#        84682
#        101222
#        110373
#        127704
#        142225
#
# Disc length: 2119 seconds
#
# Revision: 0
# Processed by: cddbd v1.5.2PL0 Copyright (c) Steve Scherf et al.
# Submitted via: ExactAudioCopy v0.99pb3
#
DISCID=a208450b
DTITLE=Davis Coen - Jukebox Classics
DYEAR=2010
DGENRE=Blues
TTITLE0=Better World
TTITLE1=Don't Ever Be Sorry
TTITLE2=Cool With Me Tonight
TTITLE3=Long Lost Friend
TTITLE4=Strangers In My Home
TTITLE5=Bad Loser
TTITLE6=Waitin' On A Fire
TTITLE7=Tight Times
TTITLE8=By And By
TTITLE9=Big Leg Woman
TTITLE10=After Hours
EXTD=
EXTT0=
EXTT1=
EXTT2=
EXTT3=
EXTT4=
EXTT5=
EXTT6=
EXTT7=
EXTT8=
EXTT9=
EXTT10=
PLAYORDER=
